# xmcd CD database file
#
# Track frame offsets:
#	150
#	29732
#	63289
#	83772
#	110759
#	143552
#	168311
#	195031
#	222429
#	236915
#
# Disc length: 3926 seconds
#
# Revision: 2
# Processed by: cddbd v1.5.2PL0 Copyright (c) Steve Scherf et al.
# Submitted via: CDex 1.51
#
DISCID=880f540a
DTITLE=W.I.N.D. - Walkin' In A New Direction
DYEAR=2010
DGENRE=Blues
TTITLE0=Amnesia
TTITLE1=Dèjà Vu With The Blues
TTITLE2=My Solitude
TTITLE3=Wastin' My Time
TTITLE4=Unbelieve
TTITLE5=It's Too Late To Lie
TTITLE6=Demons
TTITLE7=Funky To The Bone
TTITLE8=Beautiful Awareness
TTITLE9=Luky Man: Bonus Track
EXTD=YEAR: 2010
EXTT0=
EXTT1=
EXTT2=
EXTT3=
EXTT4=
EXTT5=
EXTT6=
EXTT7=
EXTT8=
EXTT9=
PLAYORDER=
